<svg width="22" height="19" viewBox="0 0 22 19" fill="none" xmlns="http://www.w3.org/2000/svg">
<path d="M15.2852 0C13.4727 0 11.7759 0.767203 10.6462 2.05264C9.5165 0.767159 7.8198 0 6.00718 0C2.69483 0 0 2.51921 0 5.6158C0 8.04056 1.54663 10.8452 4.59682 13.9517C6.94419 16.3424 9.49773 18.1935 10.2244 18.7039L10.6461 19L11.0677 18.7039C11.7944 18.1935 14.3481 16.3425 16.6955 13.9518C19.7458 10.8453 21.2924 8.0406 21.2924 5.6158C21.2924 2.51921 18.5976 0 15.2852 0ZM15.6612 13.0643C13.7304 15.0306 11.6532 16.6202 10.6461 17.3528C9.63901 16.6202 7.56185 15.0306 5.63107 13.0642C2.86563 10.2477 1.4039 7.67207 1.4039 5.6158C1.4039 3.24293 3.46893 1.31243 6.00718 1.31243C7.67753 1.31243 9.21985 2.1635 10.0323 3.53354L10.6462 4.56887L11.2601 3.53354C12.0725 2.16354 13.6148 1.31243 15.2852 1.31243C17.8235 1.31243 19.8885 3.24288 19.8885 5.6158C19.8885 7.67216 18.4267 10.2478 15.6612 13.0643Z" fill="#007879"/>
</svg>
