<svg width="20" height="23" viewBox="0 0 20 23" fill="none" xmlns="http://www.w3.org/2000/svg">
<path d="M14.5052 5.53165C14.5052 8.03892 12.4837 10.0633 10 10.0633C7.51634 10.0633 5.49477 8.03892 5.49477 5.53165C5.49477 3.02437 7.51634 1 10 1C12.4837 1 14.5052 3.02437 14.5052 5.53165ZM18.6568 17.943C19.2249 18.9236 19.0486 19.8582 18.408 20.6188C17.7339 21.419 16.5429 22 15.2155 22H4.78452C3.45713 22 2.26611 21.419 1.59202 20.6188C0.951361 19.8582 0.775055 18.9236 1.3432 17.943C3.08006 14.9454 6.30828 12.9367 10 12.9367C13.6917 12.9367 16.9199 14.9454 18.6568 17.943Z" stroke="#1C8687" stroke-width="2"/>
</svg>
