<svg width="27" height="22" viewBox="0 0 27 22" fill="none" xmlns="http://www.w3.org/2000/svg">
<path d="M4.69341 7.19713H22.4466C23.0993 7.19713 23.5771 7.81242 23.4154 8.44486L22.0803 13.666C21.7408 14.9939 20.5445 15.9228 19.1738 15.9228H6.20528L4.25498 3.33626C4.14565 2.63068 3.66847 2.0369 3.00295 1.7783L1 1" stroke="#007879" stroke-width="1.5"/>
<path d="M10.635 19.5588C10.635 20.5191 9.89164 21.2499 9.0323 21.2499C8.17296 21.2499 7.42957 20.5191 7.42957 19.5588C7.42957 18.5985 8.17296 17.8677 9.0323 17.8677C9.89164 17.8677 10.635 18.5985 10.635 19.5588Z" stroke="#007879" stroke-width="1.5"/>
<path d="M20.987 19.5588C20.987 20.5191 20.2436 21.2499 19.3842 21.2499C18.5249 21.2499 17.7815 20.5191 17.7815 19.5588C17.7815 18.5985 18.5249 17.8677 19.3842 17.8677C20.2436 17.8677 20.987 18.5985 20.987 19.5588Z" stroke="#007879" stroke-width="1.5"/>
<circle cx="23.5" cy="7.5" r="3" fill="white" stroke="#1F9C9D"/>
</svg>
